<svg width="471" height="144" viewBox="0 0 471 144" fill="currentColor" xmlns="http://www.w3.org/2000/svg">
<path d="M185.495 82.792L177.047 59.704C176.631 58.68 176.199 57.464 175.751 56.056C175.303 54.648 174.855 53.128 174.407 51.496C173.991 53.128 173.559 54.664 173.111 56.104C172.663 57.512 172.231 58.744 171.815 59.8L163.415 82.792H185.495ZM208.295 109H198.311C197.191 109 196.279 108.728 195.575 108.184C194.871 107.608 194.343 106.904 193.991 106.072L188.807 91.912H160.055L154.871 106.072C154.615 106.808 154.119 107.48 153.383 108.088C152.647 108.696 151.735 109 150.647 109H140.567L167.879 39.592H181.031L208.295 109ZM225.801 59.752V109H213.897V59.752H225.801ZM227.433 45.4C227.433 46.424 227.225 47.384 226.809 48.28C226.393 49.176 225.833 49.96 225.129 50.632C224.457 51.304 223.657 51.848 222.729 52.264C221.801 52.648 220.809 52.84 219.753 52.84C218.729 52.84 217.753 52.648 216.825 52.264C215.929 51.848 215.145 51.304 214.473 50.632C213.801 49.96 213.257 49.176 212.841 48.28C212.457 47.384 212.265 46.424 212.265 45.4C212.265 44.344 212.457 43.352 212.841 42.424C213.257 41.496 213.801 40.696 214.473 40.024C215.145 39.352 215.929 38.824 216.825 38.44C217.753 38.024 218.729 37.816 219.753 37.816C220.809 37.816 221.801 38.024 222.729 38.44C223.657 38.824 224.457 39.352 225.129 40.024C225.833 40.696 226.393 41.496 226.809 42.424C227.225 43.352 227.433 44.344 227.433 45.4ZM249.072 68.296C250.608 65.352 252.432 63.048 254.544 61.384C256.656 59.688 259.152 58.84 262.032 58.84C264.304 58.84 266.128 59.336 267.504 60.328L266.736 69.208C266.576 69.784 266.336 70.2 266.016 70.456C265.728 70.68 265.328 70.792 264.816 70.792C264.336 70.792 263.616 70.712 262.656 70.552C261.728 70.392 260.816 70.312 259.92 70.312C258.608 70.312 257.44 70.504 256.416 70.888C255.392 71.272 254.464 71.832 253.632 72.568C252.832 73.272 252.112 74.136 251.472 75.16C250.864 76.184 250.288 77.352 249.744 78.664V109H237.888V59.752H244.848C246.064 59.752 246.912 59.976 247.392 60.424C247.872 60.84 248.192 61.608 248.352 62.728L249.072 68.296ZM323.381 109H311.525V68.632H288.677V95.32C288.677 96.856 289.045 98.056 289.781 98.92C290.549 99.784 291.589 100.216 292.901 100.216C293.637 100.216 294.245 100.136 294.725 99.976C295.237 99.784 295.669 99.592 296.021 99.4C296.405 99.208 296.741 99.032 297.029 98.872C297.317 98.68 297.605 98.584 297.893 98.584C298.245 98.584 298.533 98.68 298.757 98.872C298.981 99.032 299.221 99.288 299.477 99.64L303.029 105.4C301.301 106.84 299.317 107.928 297.077 108.664C294.837 109.4 292.517 109.768 290.117 109.768C285.829 109.768 282.533 108.568 280.229 106.168C277.957 103.736 276.821 100.392 276.821 96.136V68.632H271.781C271.141 68.632 270.597 68.424 270.149 68.008C269.701 67.592 269.477 66.968 269.477 66.136V61.432L277.397 60.088L279.893 46.696C280.053 46.056 280.357 45.56 280.805 45.208C281.253 44.856 281.829 44.68 282.533 44.68H288.677V60.184H323.381V109ZM325.445 45.208C325.445 46.232 325.237 47.208 324.821 48.136C324.405 49.032 323.845 49.816 323.141 50.488C322.469 51.16 321.653 51.704 320.693 52.12C319.765 52.504 318.773 52.696 317.717 52.696C316.693 52.696 315.733 52.504 314.837 52.12C313.941 51.704 313.157 51.16 312.485 50.488C311.813 49.816 311.269 49.032 310.853 48.136C310.469 47.208 310.277 46.232 310.277 45.208C310.277 44.152 310.469 43.176 310.853 42.28C311.269 41.352 311.813 40.552 312.485 39.88C313.157 39.176 313.941 38.632 314.837 38.248C315.733 37.832 316.693 37.624 317.717 37.624C318.773 37.624 319.765 37.832 320.693 38.248C321.653 38.632 322.469 39.176 323.141 39.88C323.845 40.552 324.405 41.352 324.821 42.28C325.237 43.176 325.445 44.152 325.445 45.208ZM353.482 83.176C354.954 83.176 356.234 82.984 357.322 82.6C358.41 82.184 359.306 81.624 360.01 80.92C360.746 80.216 361.29 79.368 361.642 78.376C362.026 77.384 362.218 76.296 362.218 75.112C362.218 72.68 361.482 70.76 360.01 69.352C358.57 67.912 356.394 67.192 353.482 67.192C350.57 67.192 348.378 67.912 346.906 69.352C345.466 70.76 344.746 72.68 344.746 75.112C344.746 76.264 344.922 77.336 345.274 78.328C345.658 79.32 346.202 80.184 346.906 80.92C347.642 81.624 348.554 82.184 349.642 82.6C350.762 82.984 352.042 83.176 353.482 83.176ZM366.874 111.208C366.874 110.248 366.586 109.464 366.01 108.856C365.434 108.248 364.65 107.784 363.658 107.464C362.666 107.112 361.498 106.856 360.154 106.696C358.842 106.536 357.434 106.424 355.93 106.36C354.458 106.264 352.922 106.184 351.322 106.12C349.754 106.056 348.218 105.928 346.714 105.736C345.402 106.472 344.33 107.336 343.498 108.328C342.698 109.32 342.298 110.472 342.298 111.784C342.298 112.648 342.506 113.448 342.922 114.184C343.37 114.952 344.058 115.608 344.986 116.152C345.946 116.696 347.178 117.112 348.682 117.4C350.186 117.72 352.026 117.88 354.202 117.88C356.41 117.88 358.314 117.704 359.914 117.352C361.514 117.032 362.826 116.568 363.85 115.96C364.906 115.384 365.674 114.68 366.154 113.848C366.634 113.048 366.874 112.168 366.874 111.208ZM378.682 61.432V65.848C378.682 67.256 377.834 68.12 376.138 68.44L371.722 69.256C372.394 70.952 372.73 72.808 372.73 74.824C372.73 77.256 372.234 79.464 371.242 81.448C370.282 83.4 368.938 85.064 367.21 86.44C365.482 87.816 363.434 88.888 361.066 89.656C358.73 90.392 356.202 90.76 353.482 90.76C352.522 90.76 351.594 90.712 350.698 90.616C349.802 90.52 348.922 90.392 348.058 90.232C346.522 91.16 345.754 92.2 345.754 93.352C345.754 94.344 346.202 95.08 347.098 95.56C348.026 96.008 349.242 96.328 350.746 96.52C352.25 96.712 353.962 96.84 355.882 96.904C357.802 96.936 359.77 97.032 361.786 97.192C363.802 97.352 365.77 97.64 367.69 98.056C369.61 98.44 371.322 99.064 372.826 99.928C374.33 100.792 375.53 101.976 376.426 103.48C377.354 104.952 377.818 106.856 377.818 109.192C377.818 111.368 377.274 113.48 376.186 115.528C375.13 117.576 373.578 119.4 371.53 121C369.514 122.6 367.018 123.88 364.042 124.84C361.098 125.832 357.738 126.328 353.962 126.328C350.25 126.328 347.018 125.96 344.266 125.224C341.514 124.52 339.226 123.56 337.402 122.344C335.578 121.16 334.218 119.784 333.322 118.216C332.426 116.648 331.978 115.016 331.978 113.32C331.978 111.016 332.666 109.096 334.042 107.56C335.45 105.992 337.37 104.744 339.802 103.816C338.49 103.144 337.45 102.248 336.682 101.128C335.914 100.008 335.53 98.536 335.53 96.712C335.53 95.976 335.658 95.224 335.914 94.456C336.202 93.656 336.602 92.872 337.114 92.104C337.658 91.336 338.33 90.616 339.13 89.944C339.93 89.24 340.874 88.616 341.962 88.072C339.466 86.728 337.498 84.936 336.058 82.696C334.65 80.456 333.946 77.832 333.946 74.824C333.946 72.392 334.426 70.2 335.386 68.248C336.378 66.264 337.738 64.584 339.466 63.208C341.226 61.8 343.29 60.728 345.658 59.992C348.058 59.256 350.666 58.888 353.482 58.888C355.594 58.888 357.578 59.112 359.434 59.56C361.29 59.976 362.986 60.6 364.522 61.432H378.682ZM398.057 65.032C399.977 63.24 402.089 61.784 404.393 60.664C406.697 59.544 409.401 58.984 412.505 58.984C415.193 58.984 417.577 59.448 419.657 60.376C421.737 61.272 423.465 62.552 424.841 64.216C426.249 65.848 427.305 67.816 428.009 70.12C428.745 72.392 429.113 74.904 429.113 77.656V109H417.257V77.656C417.257 74.648 416.569 72.328 415.193 70.696C413.817 69.032 411.721 68.2 408.905 68.2C406.857 68.2 404.937 68.664 403.145 69.592C401.353 70.52 399.657 71.784 398.057 73.384V109H386.201V37.672H398.057V65.032ZM456.148 109.768C451.86 109.768 448.564 108.568 446.26 106.168C443.988 103.736 442.852 100.392 442.852 96.136V68.632H437.812C437.172 68.632 436.628 68.424 436.18 68.008C435.732 67.592 435.508 66.968 435.508 66.136V61.432L443.428 60.136L445.924 46.696C446.084 46.056 446.388 45.56 446.836 45.208C447.284 44.856 447.86 44.68 448.564 44.68H454.708V60.184H467.86V68.632H454.708V95.32C454.708 96.856 455.076 98.056 455.812 98.92C456.58 99.784 457.62 100.216 458.932 100.216C459.668 100.216 460.276 100.136 460.756 99.976C461.268 99.784 461.7 99.592 462.052 99.4C462.436 99.208 462.772 99.032 463.06 98.872C463.348 98.68 463.636 98.584 463.924 98.584C464.276 98.584 464.564 98.68 464.788 98.872C465.012 99.032 465.252 99.288 465.508 99.64L469.06 105.4C467.332 106.84 465.348 107.928 463.108 108.664C460.868 109.4 458.548 109.768 456.148 109.768Z" fill="#FF7235"/>
<path fill-rule="evenodd" clip-rule="evenodd" d="M13.4083 21H0V63.6627H13.4083H101.781H115.189V21H101.781L101.781 50.8639H13.4083L13.4083 21ZM26.8166 81.3373H13.4083V124H26.8166V94.1361H88.3728V124H101.781V81.3373H88.3728H26.8166Z" fill="#FF7235"/>
</svg>
